<svg width="64" height="64" viewBox="0 0 64 64" fill="none" xmlns="http://www.w3.org/2000/svg">
<g clip-path="url(#clip0_1_2)">
<path d="M64 32C64 49.6731 49.6731 64 32 64C14.3269 64 0 49.6731 0 32C0 14.3269 14.3269 2.30166e-10 32 2.30166e-10C49.6731 2.30166e-10 64 14.3269 64 32Z" fill="black"/>
<g clip-path="url(#clip1_1_2)">
<path d="M3.05858 41.3623H59.9414V43.1304H3.05858V41.3623Z" fill="white" stroke="white"/>
<path d="M11.6452 47.1896C11.0941 47.1896 10.6742 47.0467 10.3854 46.7609C10.0999 46.4751 9.95716 46.0349 9.95716 45.4403C9.95716 45.0526 10.0235 44.7291 10.1563 44.4696C10.2891 44.21 10.485 44.0162 10.7439 43.8881C11.0028 43.7567 11.3182 43.691 11.69 43.691C11.9224 43.691 12.1332 43.7157 12.3224 43.7649C12.5116 43.8142 12.6743 43.8897 12.8104 43.9916C12.9498 44.0901 13.056 44.215 13.1291 44.3661C13.2054 44.5172 13.2436 44.6962 13.2436 44.9032H12.7606C12.7606 44.7587 12.7341 44.6355 12.6809 44.5336C12.6278 44.4285 12.5515 44.3431 12.4519 44.2774C12.3556 44.2117 12.2427 44.1657 12.1133 44.1394C11.9838 44.1099 11.846 44.0951 11.7 44.0951C11.5008 44.0951 11.3232 44.1197 11.1672 44.169C11.0112 44.2183 10.88 44.2955 10.7738 44.4006C10.6676 44.5057 10.5862 44.6404 10.5298 44.8046C10.4734 44.9689 10.4451 45.1643 10.4451 45.391V45.4945C10.4451 45.8 10.4916 46.048 10.5846 46.2385C10.6808 46.4291 10.8186 46.5687 10.9979 46.6574C11.1771 46.7428 11.3929 46.7855 11.6452 46.7855C11.9008 46.7855 12.1116 46.751 12.2776 46.682C12.4435 46.6097 12.5664 46.5013 12.6461 46.3568C12.7291 46.2123 12.7706 46.03 12.7706 45.8099V45.7507H11.5655V45.3516H13.2486V47.1304H12.8901L12.8403 46.7017C12.7506 46.8167 12.6444 46.9103 12.5216 46.9826C12.3987 47.0549 12.2626 47.1074 12.1133 47.1403C11.9672 47.1732 11.8112 47.1896 11.6452 47.1896ZM13.9352 47.1304V44.5386H14.2888L14.3286 44.9672H14.3634C14.39 44.8851 14.4265 44.8079 14.473 44.7357C14.5195 44.6601 14.5825 44.5993 14.6622 44.5533C14.7419 44.5041 14.8398 44.4794 14.956 44.4794C15.0058 44.4794 15.0506 44.4843 15.0904 44.4942C15.1336 44.5008 15.1651 44.509 15.1851 44.5188V44.918H15.0207C14.9079 44.918 14.81 44.9377 14.7269 44.9771C14.6473 45.0132 14.5809 45.0658 14.5278 45.1348C14.4747 45.2038 14.4349 45.2859 14.4083 45.3812C14.3851 45.4764 14.3734 45.5783 14.3734 45.6867V47.1304H13.9352ZM16.5657 47.1896C16.3002 47.1896 16.0761 47.1419 15.8935 47.0467C15.7142 46.9481 15.5764 46.7987 15.4802 46.5983C15.3872 46.3979 15.3408 46.1433 15.3408 45.8345C15.3408 45.5224 15.3872 45.2678 15.4802 45.0707C15.5764 44.8703 15.7142 44.7225 15.8935 44.6272C16.0761 44.5287 16.3002 44.4794 16.5657 44.4794C16.8313 44.4794 17.0537 44.5287 17.233 44.6272C17.4156 44.7225 17.5533 44.8703 17.6462 45.0707C17.7392 45.2678 17.7857 45.5224 17.7857 45.8345C17.7857 46.1433 17.7392 46.3979 17.6462 46.5983C17.5533 46.7987 17.4156 46.9481 17.233 47.0467C17.0537 47.1419 16.8313 47.1896 16.5657 47.1896ZM16.5657 46.8249C16.735 46.8249 16.8761 46.7921 16.989 46.7264C17.1018 46.6607 17.1865 46.5588 17.2429 46.4209C17.3027 46.2796 17.3325 46.1022 17.3325 45.8887V45.7803C17.3325 45.5635 17.3027 45.3861 17.2429 45.2481C17.1865 45.1101 17.1018 45.0083 16.989 44.9426C16.8761 44.8769 16.735 44.8441 16.5657 44.8441C16.3964 44.8441 16.2536 44.8769 16.1375 44.9426C16.0246 45.0083 15.9399 45.1101 15.8835 45.2481C15.8271 45.3861 15.7989 45.5635 15.7989 45.7803V45.8887C15.7989 46.1022 15.8271 46.2796 15.8835 46.4209C15.9399 46.5588 16.0246 46.6607 16.1375 46.7264C16.2536 46.7921 16.3964 46.8249 16.5657 46.8249ZM19.0919 47.1896C18.8396 47.1896 18.637 47.1255 18.4844 46.9974C18.3317 46.8693 18.2553 46.6459 18.2553 46.3272V44.5386H18.6935V46.2681C18.6935 46.3765 18.7068 46.4652 18.7333 46.5342C18.7599 46.6032 18.7981 46.6574 18.8479 46.6968C18.8977 46.7362 18.9557 46.7642 19.0222 46.7806C19.0919 46.797 19.1666 46.8052 19.2462 46.8052C19.3724 46.8052 19.4885 46.7757 19.5948 46.7165C19.701 46.6574 19.7873 46.572 19.8537 46.4603C19.9234 46.3453 19.9583 46.2123 19.9583 46.0612V44.5386H20.3965V47.1304H20.0429L20.0031 46.7412H19.9682C19.8985 46.8463 19.8189 46.9317 19.7292 46.9974C19.6429 47.0631 19.545 47.1107 19.4354 47.1403C19.3292 47.1732 19.2147 47.1896 19.0919 47.1896ZM21.0265 47.9829V44.5386H21.375L21.4198 44.9081H21.4547C21.5443 44.7636 21.6589 44.6568 21.7983 44.5878C21.9377 44.5155 22.0954 44.4794 22.2713 44.4794C22.4904 44.4794 22.6763 44.5271 22.829 44.6223C22.9818 44.7176 23.0996 44.8671 23.1826 45.0707C23.2656 45.2711 23.3071 45.5323 23.3071 45.8542C23.3071 46.1564 23.2639 46.4077 23.1776 46.6081C23.0946 46.8052 22.9768 46.9514 22.824 47.0467C22.6713 47.1419 22.4938 47.1896 22.2912 47.1896C22.1784 47.1896 22.0722 47.1764 21.9726 47.1501C21.873 47.1239 21.7833 47.0828 21.7037 47.027C21.624 46.9678 21.5543 46.8939 21.4945 46.8052H21.4647V47.9829H21.0265ZM22.1518 46.8101C22.3145 46.8101 22.4473 46.779 22.5502 46.7165C22.6531 46.6508 22.7294 46.5506 22.7792 46.4159C22.829 46.278 22.8539 46.1022 22.8539 45.8887V45.7852C22.8539 45.5585 22.8274 45.3779 22.7743 45.2432C22.7211 45.1052 22.6431 45.0067 22.5402 44.9475C22.4406 44.8884 22.3161 44.8588 22.1668 44.8588C22.0041 44.8588 21.8696 44.895 21.7634 44.9672C21.6605 45.0362 21.5842 45.1413 21.5344 45.2826C21.4879 45.4239 21.4647 45.5963 21.4647 45.8V45.8739C21.4647 46.0546 21.4812 46.2057 21.5145 46.3272C21.551 46.4455 21.6007 46.5408 21.6638 46.613C21.7302 46.6853 21.8049 46.7362 21.8879 46.7658C21.9709 46.7954 22.0589 46.8101 22.1518 46.8101ZM25.8683 47.1896C25.6028 47.1896 25.3787 47.1419 25.1961 47.0467C25.0168 46.9481 24.8791 46.7987 24.7828 46.5983C24.6899 46.3979 24.6434 46.1433 24.6434 45.8345C24.6434 45.5224 24.6899 45.2678 24.7828 45.0707C24.8791 44.8703 25.0168 44.7225 25.1961 44.6272C25.3787 44.5287 25.6028 44.4794 25.8683 44.4794C26.1339 44.4794 26.3563 44.5287 26.5356 44.6272C26.7182 44.7225 26.8559 44.8703 26.9488 45.0707C27.0418 45.2678 27.0883 45.5224 27.0883 45.8345C27.0883 46.1433 27.0418 46.3979 26.9488 46.5983C26.8559 46.7987 26.7182 46.9481 26.5356 47.0467C26.3563 47.1419 26.1339 47.1896 25.8683 47.1896ZM25.8683 46.8249C26.0376 46.8249 26.1787 46.7921 26.2916 46.7264C26.4044 46.6607 26.4891 46.5588 26.5455 46.4209C26.6053 46.2796 26.6351 46.1022 26.6351 45.8887V45.7803C26.6351 45.5635 26.6053 45.3861 26.5455 45.2481C26.4891 45.1101 26.4044 45.0083 26.2916 44.9426C26.1787 44.8769 26.0376 44.8441 25.8683 44.8441C25.699 44.8441 25.5563 44.8769 25.4401 44.9426C25.3272 45.0083 25.2426 45.1101 25.1861 45.2481C25.1297 45.3861 25.1015 45.5635 25.1015 45.7803V45.8887C25.1015 46.1022 25.1297 46.2796 25.1861 46.4209C25.2426 46.5588 25.3272 46.6607 25.4401 46.7264C25.5563 46.7921 25.699 46.8249 25.8683 46.8249ZM27.6874 47.1304V44.9032H27.299V44.5386H27.6874V44.1246C27.6874 44.0228 27.7023 43.9275 27.7322 43.8388C27.7621 43.7468 27.8185 43.6729 27.9015 43.6171C27.9845 43.558 28.1007 43.5284 28.2501 43.5284C28.2965 43.5284 28.3413 43.5317 28.3845 43.5383C28.431 43.5416 28.4741 43.5481 28.514 43.558C28.5571 43.5645 28.5953 43.5728 28.6285 43.5826V43.893H28.3646C28.2816 43.893 28.2202 43.9144 28.1804 43.9571C28.1438 43.9965 28.1256 44.054 28.1256 44.1296V44.5386H28.6285V44.9032H28.1256V47.1304H27.6874ZM30.9154 47.1896C30.663 47.1896 30.4506 47.1419 30.278 47.0467C30.1087 46.9481 29.9792 46.7987 29.8896 46.5983C29.8032 46.3946 29.7601 46.14 29.7601 45.8345C29.7601 45.529 29.8032 45.2761 29.8896 45.0757C29.9792 44.8752 30.1103 44.7258 30.283 44.6272C30.4589 44.5287 30.6746 44.4794 30.9303 44.4794C31.1096 44.4794 31.2639 44.5024 31.3934 44.5484C31.5261 44.5944 31.6357 44.6617 31.722 44.7504C31.8083 44.8391 31.8714 44.9459 31.9112 45.0707C31.9544 45.1955 31.976 45.3384 31.976 45.4994H31.5328C31.5328 45.3483 31.5112 45.2251 31.4681 45.1299C31.4282 45.0313 31.3635 44.959 31.2739 44.913C31.1842 44.8638 31.0664 44.8391 30.9203 44.8391C30.7742 44.8391 30.6481 44.872 30.5419 44.9377C30.4356 45.0001 30.3543 45.1003 30.2979 45.2383C30.2414 45.3762 30.2133 45.5585 30.2133 45.7852V45.8887C30.2133 46.1022 30.2398 46.2796 30.2929 46.4209C30.3493 46.5621 30.4306 46.6656 30.5369 46.7313C30.6431 46.797 30.7726 46.8299 30.9253 46.8299C31.0747 46.8299 31.1942 46.8036 31.2838 46.751C31.3767 46.6984 31.4432 46.6229 31.483 46.5243C31.5261 46.4258 31.5477 46.3075 31.5477 46.1696H31.976C31.976 46.3141 31.9544 46.4488 31.9112 46.5736C31.8714 46.6984 31.8083 46.8068 31.722 46.8988C31.6357 46.9908 31.5261 47.0631 31.3934 47.1157C31.2606 47.1649 31.1012 47.1896 30.9154 47.1896ZM33.5273 47.1896C33.2618 47.1896 33.0377 47.1419 32.8551 47.0467C32.6759 46.9481 32.5381 46.7987 32.4418 46.5983C32.3488 46.3979 32.3024 46.1433 32.3024 45.8345C32.3024 45.5224 32.3488 45.2678 32.4418 45.0707C32.5381 44.8703 32.6759 44.7225 32.8551 44.6272C33.0377 44.5287 33.2618 44.4794 33.5273 44.4794C33.7929 44.4794 34.0153 44.5287 34.1946 44.6272C34.3772 44.7225 34.5149 44.8703 34.6079 45.0707C34.7008 45.2678 34.7473 45.5224 34.7473 45.8345C34.7473 46.1433 34.7008 46.3979 34.6079 46.5983C34.5149 46.7987 34.3772 46.9481 34.1946 47.0467C34.0153 47.1419 33.7929 47.1896 33.5273 47.1896ZM33.5273 46.8249C33.6966 46.8249 33.8377 46.7921 33.9506 46.7264C34.0635 46.6607 34.1481 46.5588 34.2045 46.4209C34.2643 46.2796 34.2942 46.1022 34.2942 45.8887V45.7803C34.2942 45.5635 34.2643 45.3861 34.2045 45.2481C34.1481 45.1101 34.0635 45.0083 33.9506 44.9426C33.8377 44.8769 33.6966 44.8441 33.5273 44.8441C33.358 44.8441 33.2153 44.8769 33.0991 44.9426C32.9862 45.0083 32.9016 45.1101 32.8452 45.2481C32.7887 45.3861 32.7605 45.5635 32.7605 45.7803V45.8887C32.7605 46.1022 32.7887 46.2796 32.8452 46.4209C32.9016 46.5588 32.9862 46.6607 33.0991 46.7264C33.2153 46.7921 33.358 46.8249 33.5273 46.8249ZM35.2418 47.1304V44.5386H35.5953L35.6352 44.9278H35.67C35.7365 44.8227 35.8111 44.7373 35.8941 44.6716C35.9771 44.6059 36.0684 44.5583 36.168 44.5287C36.2676 44.4958 36.3755 44.4794 36.4916 44.4794C36.6609 44.4794 36.807 44.5139 36.9298 44.5829C37.0527 44.6486 37.1439 44.7636 37.2037 44.9278H37.2336C37.2967 44.8227 37.3697 44.739 37.4527 44.6765C37.5357 44.6108 37.6286 44.5616 37.7315 44.5287C37.8344 44.4958 37.944 44.4794 38.0602 44.4794C38.2195 44.4794 38.3589 44.5074 38.4784 44.5632C38.5979 44.6158 38.6909 44.7045 38.7573 44.8293C38.827 44.9508 38.8618 45.1151 38.8618 45.322V47.1304H38.4237V45.391C38.4237 45.2859 38.4104 45.1988 38.3838 45.1299C38.3606 45.0609 38.3258 45.0083 38.2793 44.9722C38.2328 44.9328 38.178 44.9048 38.1149 44.8884C38.0552 44.872 37.9904 44.8638 37.9207 44.8638C37.8046 44.8638 37.6967 44.8933 37.5971 44.9525C37.5008 45.0116 37.4228 45.097 37.363 45.2087C37.3033 45.3204 37.2734 45.4534 37.2734 45.6078V47.1304H36.8352V45.391C36.8352 45.2859 36.822 45.1988 36.7954 45.1299C36.7688 45.0609 36.734 45.0083 36.6908 44.9722C36.6477 44.9328 36.5946 44.9048 36.5315 44.8884C36.4717 44.872 36.4087 44.8638 36.3422 44.8638C36.2227 44.8638 36.1116 44.8933 36.0086 44.9525C35.909 45.0116 35.8294 45.097 35.7696 45.2087C35.7099 45.3204 35.68 45.4534 35.68 45.6078V47.1304H35.2418ZM39.4761 47.9829V44.5386H39.8246L39.8694 44.9081H39.9043C39.9939 44.7636 40.1085 44.6568 40.2479 44.5878C40.3873 44.5155 40.545 44.4794 40.7209 44.4794C40.94 44.4794 41.126 44.5271 41.2786 44.6223C41.4314 44.7176 41.5492 44.8671 41.6322 45.0707C41.7152 45.2711 41.7567 45.5323 41.7567 45.8542C41.7567 46.1564 41.7135 46.4077 41.6272 46.6081C41.5442 46.8052 41.4264 46.9514 41.2737 47.0467C41.121 47.1419 40.9434 47.1896 40.7409 47.1896C40.628 47.1896 40.5218 47.1764 40.4222 47.1501C40.3226 47.1239 40.233 47.0828 40.1533 47.027C40.0736 46.9678 40.0039 46.8939 39.9441 46.8052H39.9143V47.9829H39.4761ZM40.6014 46.8101C40.7641 46.8101 40.8969 46.779 40.9998 46.7165C41.1027 46.6508 41.179 46.5506 41.2288 46.4159C41.2786 46.278 41.3035 46.1022 41.3035 45.8887V45.7852C41.3035 45.5585 41.277 45.3779 41.2239 45.2432C41.1708 45.1052 41.0928 45.0067 40.9898 44.9475C40.8902 44.8884 40.7658 44.8588 40.6164 44.8588C40.4537 44.8588 40.3193 44.895 40.213 44.9672C40.1102 45.0362 40.0338 45.1413 39.984 45.2826C39.9375 45.4239 39.9143 45.5963 39.9143 45.8V45.8739C39.9143 46.0546 39.9309 46.2057 39.9641 46.3272C40.0006 46.4455 40.0504 46.5408 40.1134 46.613C40.1799 46.6853 40.2546 46.7362 40.3375 46.7658C40.4205 46.7954 40.5085 46.8101 40.6014 46.8101ZM42.9088 47.1896C42.8125 47.1896 42.7163 47.1781 42.62 47.1551C42.5237 47.1321 42.4341 47.0943 42.3511 47.0417C42.2681 46.9892 42.2018 46.9169 42.152 46.8249C42.1022 46.7297 42.0773 46.6114 42.0773 46.4701C42.0773 46.2928 42.1204 46.1465 42.2067 46.0316C42.293 45.9166 42.4125 45.8279 42.5653 45.7655C42.7213 45.6998 42.9055 45.6555 43.118 45.6325C43.3305 45.6062 43.5612 45.593 43.8101 45.593V45.2974C43.8101 45.2021 43.7935 45.12 43.7603 45.051C43.7271 44.982 43.6674 44.9294 43.5811 44.8933C43.4981 44.8539 43.3786 44.8342 43.2226 44.8342C43.0732 44.8342 42.9537 44.8539 42.864 44.8933C42.7777 44.9294 42.7163 44.9771 42.6798 45.0362C42.6466 45.0954 42.63 45.161 42.63 45.2333V45.3072H42.2067C42.2034 45.2908 42.2018 45.2744 42.2018 45.258C42.2018 45.2416 42.2018 45.2219 42.2018 45.1988C42.2018 45.0412 42.2449 44.9097 42.3312 44.8046C42.4209 44.6962 42.5453 44.6158 42.7047 44.5632C42.864 44.5074 43.0466 44.4794 43.2524 44.4794C43.4715 44.4794 43.6541 44.5106 43.8002 44.573C43.9495 44.6355 44.0607 44.7242 44.1338 44.8391C44.2101 44.9541 44.2483 45.0921 44.2483 45.253V46.6574C44.2483 46.7198 44.2633 46.7642 44.2931 46.7904C44.323 46.8134 44.3595 46.8249 44.4027 46.8249H44.5969V47.1107C44.5504 47.1304 44.4989 47.1468 44.4425 47.16C44.3861 47.1764 44.3214 47.1846 44.2483 47.1846C44.162 47.1846 44.0906 47.1665 44.0342 47.1304C43.9778 47.0976 43.9346 47.0516 43.9047 46.9925C43.8749 46.93 43.8549 46.861 43.845 46.7855H43.8101C43.7504 46.8677 43.674 46.9399 43.5811 47.0023C43.4914 47.0614 43.3902 47.1074 43.2773 47.1403C43.1644 47.1732 43.0416 47.1896 42.9088 47.1896ZM43.0184 46.8249C43.1246 46.8249 43.2242 46.8085 43.3172 46.7757C43.4134 46.7428 43.4981 46.6968 43.5711 46.6377C43.6442 46.5752 43.7022 46.5013 43.7454 46.4159C43.7886 46.3305 43.8101 46.2369 43.8101 46.1351V45.9183C43.5412 45.9183 43.3122 45.933 43.123 45.9626C42.9337 45.9922 42.7876 46.0448 42.6848 46.1203C42.5852 46.1958 42.5354 46.3026 42.5354 46.4406C42.5354 46.5293 42.5553 46.6016 42.5951 46.6574C42.635 46.7132 42.6914 46.7559 42.7644 46.7855C42.8374 46.8118 42.9221 46.8249 43.0184 46.8249ZM44.9152 47.1304V44.5386H45.2687L45.3085 44.9278H45.3434C45.4131 44.8227 45.4911 44.7373 45.5774 44.6716C45.667 44.6059 45.765 44.5583 45.8712 44.5287C45.9808 44.4958 46.0969 44.4794 46.2198 44.4794C46.3857 44.4794 46.5301 44.5074 46.653 44.5632C46.7791 44.619 46.8771 44.7094 46.9468 44.8342C47.0198 44.959 47.0563 45.1282 47.0563 45.3417V47.1304H46.6181V45.4009C46.6181 45.2925 46.6032 45.2038 46.5733 45.1348C46.5468 45.0658 46.5086 45.0116 46.4588 44.9722C46.4123 44.9328 46.3542 44.9048 46.2845 44.8884C46.2181 44.872 46.1434 44.8638 46.0604 44.8638C45.9376 44.8638 45.8214 44.8933 45.7119 44.9525C45.6023 45.0116 45.5143 45.097 45.448 45.2087C45.3849 45.3204 45.3533 45.4534 45.3533 45.6078V47.1304H44.9152ZM47.6712 44.0507V43.5678H48.1094V44.0507H47.6712ZM47.6712 47.1304V44.5386H48.1094V47.1304H47.6712ZM49.7855 47.1896C49.5266 47.1896 49.3075 47.1419 49.1282 47.0467C48.9523 46.9481 48.8178 46.7987 48.7249 46.5983C48.6353 46.3979 48.5905 46.1433 48.5905 45.8345C48.5905 45.5224 48.6353 45.2678 48.7249 45.0707C48.8178 44.8703 48.954 44.7225 49.1332 44.6272C49.3125 44.5287 49.5365 44.4794 49.8054 44.4794C50.0511 44.4794 50.2569 44.5271 50.4229 44.6223C50.5889 44.7143 50.7133 44.8539 50.7963 45.0412C50.8826 45.2251 50.9258 45.4567 50.9258 45.7359V45.9429H49.0436C49.0502 46.1499 49.0801 46.3207 49.1332 46.4554C49.1896 46.5868 49.2726 46.6837 49.3822 46.7461C49.4917 46.8052 49.6295 46.8348 49.7955 46.8348C49.9083 46.8348 50.0063 46.8216 50.0893 46.7954C50.1756 46.7658 50.2469 46.7248 50.3034 46.6722C50.3631 46.6196 50.4079 46.5572 50.4378 46.4849C50.4677 46.4126 50.4843 46.3338 50.4876 46.2484H50.9159C50.9125 46.3864 50.886 46.5145 50.8362 46.6328C50.7864 46.7477 50.7133 46.8463 50.6171 46.9284C50.5208 47.0106 50.403 47.0746 50.2635 47.1206C50.1241 47.1666 49.9648 47.1896 49.7855 47.1896ZM49.0535 45.6177H50.4727C50.4727 45.4732 50.456 45.3516 50.4229 45.253C50.3897 45.1545 50.3415 45.074 50.2785 45.0116C50.2187 44.9492 50.1473 44.9048 50.0644 44.8785C49.9847 44.849 49.8934 44.8342 49.7905 44.8342C49.6378 44.8342 49.5083 44.8621 49.4021 44.918C49.2958 44.9738 49.2145 45.0592 49.1581 45.1742C49.1016 45.2892 49.0668 45.437 49.0535 45.6177ZM52.3342 47.1896C52.155 47.1896 51.9973 47.1715 51.8612 47.1354C51.7251 47.0992 51.6122 47.0467 51.5226 46.9777C51.433 46.9087 51.3649 46.8265 51.3184 46.7313C51.272 46.6361 51.2487 46.5277 51.2487 46.4061C51.2487 46.3897 51.2487 46.3749 51.2487 46.3617C51.2487 46.3453 51.2504 46.3322 51.2537 46.3223H51.6869C51.6836 46.3355 51.6819 46.347 51.6819 46.3568C51.6819 46.3667 51.6819 46.3765 51.6819 46.3864C51.6853 46.5013 51.7151 46.5917 51.7716 46.6574C51.8313 46.7231 51.9126 46.7691 52.0155 46.7954C52.1185 46.8216 52.233 46.8348 52.3591 46.8348C52.4687 46.8348 52.5699 46.8216 52.6629 46.7954C52.7558 46.7658 52.8288 46.7231 52.882 46.6672C52.9384 46.6081 52.9666 46.5342 52.9666 46.4455C52.9666 46.3371 52.9301 46.255 52.8571 46.1991C52.7874 46.14 52.6944 46.094 52.5782 46.0612C52.4621 46.0283 52.3409 45.9938 52.2147 45.9577C52.1085 45.9281 52.0022 45.8952 51.896 45.8591C51.7898 45.823 51.6935 45.7787 51.6072 45.7261C51.5242 45.6735 51.4562 45.6062 51.4031 45.5241C51.3533 45.4387 51.3284 45.3319 51.3284 45.2038C51.3284 45.0888 51.3516 44.987 51.3981 44.8983C51.4479 44.8096 51.5176 44.734 51.6072 44.6716C51.6969 44.6092 51.8048 44.5632 51.9309 44.5336C52.0604 44.5008 52.2031 44.4843 52.3591 44.4843C52.5251 44.4843 52.6695 44.5024 52.7923 44.5386C52.9185 44.5747 53.023 44.6256 53.106 44.6913C53.1891 44.757 53.2504 44.8326 53.2903 44.918C53.3301 45.0001 53.35 45.0888 53.35 45.1841C53.35 45.2038 53.35 45.2235 53.35 45.2432C53.35 45.2596 53.3484 45.2728 53.3451 45.2826H52.9168V45.2284C52.9168 45.1627 52.8985 45.1003 52.8621 45.0412C52.8288 44.9787 52.7691 44.9294 52.6828 44.8933C52.5998 44.8539 52.4836 44.8342 52.3342 44.8342C52.238 44.8342 52.155 44.8424 52.0853 44.8588C52.0155 44.872 51.9574 44.895 51.911 44.9278C51.8645 44.9574 51.8297 44.9935 51.8064 45.0362C51.7832 45.0757 51.7716 45.1216 51.7716 45.1742C51.7716 45.2596 51.7998 45.3253 51.8562 45.3713C51.9126 45.4173 51.9873 45.4551 52.0803 45.4846C52.1765 45.5142 52.2795 45.5471 52.389 45.5832C52.5052 45.6161 52.623 45.6505 52.7425 45.6867C52.8654 45.7195 52.9766 45.7622 53.0762 45.8148C53.1791 45.8674 53.2604 45.9396 53.3202 46.0316C53.3833 46.1203 53.4148 46.2385 53.4148 46.3864C53.4148 46.5243 53.3882 46.6442 53.3351 46.7461C53.282 46.8479 53.2056 46.9317 53.106 46.9974C53.0098 47.0631 52.8953 47.1107 52.7625 47.1403C52.633 47.1732 52.4902 47.1896 52.3342 47.1896Z" fill="#454343"/>
<path d="M8.2665 35.5339V40.5797H6.06558V35.5339H3.81487V33.7994H10.5072V35.5339H8.2665ZM11.5099 33.7994H17.4355V35.4255H13.7108V36.3617H16.8977V37.9188H13.7108V38.9536H17.5052V40.5797H11.5099V33.7994ZM21.9635 33.6812C22.9794 33.6812 23.7827 33.9341 24.3736 34.44C24.9645 34.9393 25.2599 35.6555 25.2599 36.5884H23.1586C23.1586 36.1942 23.0524 35.8821 22.8399 35.6522C22.6341 35.4222 22.3386 35.3072 21.9536 35.3072C21.5088 35.3072 21.1801 35.4452 20.9677 35.7212C20.7619 35.9971 20.6589 36.3814 20.6589 36.8742V37.5049C20.6589 37.9911 20.7619 38.3755 20.9677 38.658C21.1801 38.9339 21.5021 39.0719 21.9337 39.0719C22.3586 39.0719 22.6806 38.9635 22.8997 38.7467C23.1188 38.5299 23.2283 38.2243 23.2283 37.8301H25.2599C25.2599 38.7565 24.9711 39.4661 24.3935 39.9588C23.8225 40.4516 23.0126 40.698 21.9635 40.698C20.795 40.698 19.9087 40.4023 19.3045 39.811C18.707 39.2197 18.4082 38.3459 18.4082 37.1896C18.4082 36.0332 18.707 35.1594 19.3045 34.5681C19.9087 33.9768 20.795 33.6812 21.9635 33.6812ZM31.0692 40.5797V38.0075H28.6492V40.5797H26.4483V33.7994H28.6492V36.273H31.0692V33.7994H33.2701V40.5797H31.0692ZM38.0106 33.6812C39.0264 33.6812 39.8297 33.9341 40.4206 34.44C41.0116 34.9393 41.307 35.6555 41.307 36.5884H39.2057C39.2057 36.1942 39.0995 35.8821 38.887 35.6522C38.6812 35.4222 38.3857 35.3072 38.0006 35.3072C37.5558 35.3072 37.2272 35.4452 37.0147 35.7212C36.8089 35.9971 36.706 36.3814 36.706 36.8742V37.5049C36.706 37.9911 36.8089 38.3755 37.0147 38.658C37.2272 38.9339 37.5492 39.0719 37.9807 39.0719C38.4056 39.0719 38.7276 38.9635 38.9467 38.7467C39.1658 38.5299 39.2754 38.2243 39.2754 37.8301H41.307C41.307 38.7565 41.0182 39.4661 40.4406 39.9588C39.8696 40.4516 39.0596 40.698 38.0106 40.698C36.8421 40.698 35.9557 40.4023 35.3516 39.811C34.754 39.2197 34.4553 38.3459 34.4553 37.1896C34.4553 36.0332 34.754 35.1594 35.3516 34.5681C35.9557 33.9768 36.8421 33.6812 38.0106 33.6812ZM45.9012 33.6812C47.083 33.6812 47.9959 33.9801 48.6399 34.578C49.2839 35.1758 49.6059 36.0464 49.6059 37.1896C49.6059 38.3328 49.2839 39.2033 48.6399 39.8012C47.9959 40.399 47.083 40.698 45.9012 40.698C44.7194 40.698 43.8066 40.4023 43.1625 39.811C42.5251 39.2132 42.2065 38.3393 42.2065 37.1896C42.2065 36.0398 42.5251 35.1693 43.1625 34.578C43.8066 33.9801 44.7194 33.6812 45.9012 33.6812ZM45.9012 35.3072C45.4299 35.3072 45.0713 35.4485 44.8256 35.731C44.58 36.0135 44.4572 36.3946 44.4572 36.8742V37.5049C44.4572 37.9845 44.58 38.3656 44.8256 38.6481C45.0713 38.9306 45.4299 39.0719 45.9012 39.0719C46.3726 39.0719 46.7311 38.9306 46.9768 38.6481C47.2291 38.3656 47.3552 37.9845 47.3552 37.5049V36.8742C47.3552 36.3946 47.2291 36.0135 46.9768 35.731C46.7311 35.4485 46.3726 35.3072 45.9012 35.3072ZM56.6768 40.5797V38.1357C56.6768 37.8334 56.6868 37.5246 56.7067 37.2093C56.7333 36.8874 56.7598 36.618 56.7864 36.4012C56.8129 36.1843 56.8295 36.0464 56.8362 35.9872H56.7963L55.5316 40.5797H53.8087L52.5339 35.9971H52.4941C52.5007 36.0562 52.5173 36.1942 52.5439 36.411C52.5771 36.6213 52.6069 36.8874 52.6335 37.2093C52.6601 37.5246 52.6734 37.8334 52.6734 38.1357V40.5797H50.6517V33.7994H53.7589L54.7946 37.7119H54.8344L55.8602 33.7994H58.8578V40.5797H56.6768Z" fill="#FC9B27"/>
<mask id="mask0_1_2" style="mask-type:luminance" maskUnits="userSpaceOnUse" x="3" y="33" width="57" height="8">
<path d="M59.0041 33.5652H3.6444V40.8696H59.0041V33.5652Z" fill="white"/>
<path d="M8.2665 35.5339V40.5797H6.06558V35.5339H3.81487V33.7994H10.5072V35.5339H8.2665ZM11.5099 33.7994H17.4355V35.4255H13.7108V36.3617H16.8977V37.9188H13.7108V38.9536H17.5052V40.5797H11.5099V33.7994ZM21.9635 33.6812C22.9794 33.6812 23.7827 33.9341 24.3736 34.44C24.9645 34.9393 25.2599 35.6555 25.2599 36.5884H23.1586C23.1586 36.1942 23.0524 35.8821 22.8399 35.6522C22.6341 35.4222 22.3386 35.3072 21.9536 35.3072C21.5088 35.3072 21.1801 35.4452 20.9677 35.7212C20.7619 35.9971 20.6589 36.3814 20.6589 36.8742V37.5049C20.6589 37.9911 20.7619 38.3755 20.9677 38.658C21.1801 38.9339 21.5021 39.0719 21.9337 39.0719C22.3586 39.0719 22.6806 38.9635 22.8997 38.7467C23.1188 38.5299 23.2283 38.2243 23.2283 37.8301H25.2599C25.2599 38.7565 24.9711 39.4661 24.3935 39.9588C23.8225 40.4516 23.0126 40.698 21.9635 40.698C20.795 40.698 19.9087 40.4023 19.3045 39.811C18.707 39.2197 18.4082 38.3459 18.4082 37.1896C18.4082 36.0332 18.707 35.1594 19.3045 34.5681C19.9087 33.9768 20.795 33.6812 21.9635 33.6812ZM31.0692 40.5797V38.0075H28.6492V40.5797H26.4483V33.7994H28.6492V36.273H31.0692V33.7994H33.2701V40.5797H31.0692ZM38.0106 33.6812C39.0264 33.6812 39.8297 33.9341 40.4206 34.44C41.0116 34.9393 41.307 35.6555 41.307 36.5884H39.2057C39.2057 36.1942 39.0995 35.8821 38.887 35.6522C38.6812 35.4222 38.3857 35.3072 38.0006 35.3072C37.5558 35.3072 37.2272 35.4452 37.0147 35.7212C36.8089 35.9971 36.706 36.3814 36.706 36.8742V37.5049C36.706 37.9911 36.8089 38.3755 37.0147 38.658C37.2272 38.9339 37.5492 39.0719 37.9807 39.0719C38.4056 39.0719 38.7276 38.9635 38.9467 38.7467C39.1658 38.5299 39.2754 38.2243 39.2754 37.8301H41.307C41.307 38.7565 41.0182 39.4661 40.4406 39.9588C39.8696 40.4516 39.0596 40.698 38.0106 40.698C36.8421 40.698 35.9557 40.4023 35.3516 39.811C34.754 39.2197 34.4553 38.3459 34.4553 37.1896C34.4553 36.0332 34.754 35.1594 35.3516 34.5681C35.9557 33.9768 36.8421 33.6812 38.0106 33.6812ZM45.9012 33.6812C47.083 33.6812 47.9959 33.9801 48.6399 34.578C49.2839 35.1758 49.6059 36.0464 49.6059 37.1896C49.6059 38.3327 49.2839 39.2033 48.6399 39.8012C47.9959 40.399 47.083 40.698 45.9012 40.698C44.7194 40.698 43.8066 40.4023 43.1625 39.811C42.5251 39.2132 42.2065 38.3393 42.2065 37.1896C42.2065 36.0398 42.5251 35.1693 43.1625 34.578C43.8066 33.9801 44.7194 33.6812 45.9012 33.6812ZM45.9012 35.3072C45.4299 35.3072 45.0713 35.4485 44.8256 35.731C44.58 36.0135 44.4572 36.3946 44.4572 36.8742V37.5049C44.4572 37.9845 44.58 38.3656 44.8256 38.6481C45.0713 38.9306 45.4299 39.0719 45.9012 39.0719C46.3726 39.0719 46.7311 38.9306 46.9768 38.6481C47.2291 38.3656 47.3552 37.9845 47.3552 37.5049V36.8742C47.3552 36.3946 47.2291 36.0135 46.9768 35.731C46.7311 35.4485 46.3726 35.3072 45.9012 35.3072ZM56.6768 40.5797V38.1356C56.6768 37.8334 56.6868 37.5246 56.7067 37.2093C56.7333 36.8874 56.7598 36.618 56.7864 36.4012C56.8129 36.1843 56.8295 36.0464 56.8362 35.9872H56.7963L55.5316 40.5797H53.8087L52.5339 35.9971H52.4941C52.5007 36.0562 52.5173 36.1942 52.5439 36.411C52.5771 36.6213 52.6069 36.8874 52.6335 37.2093C52.6601 37.5246 52.6734 37.8334 52.6734 38.1356V40.5797H50.6517V33.7994H53.7589L54.7946 37.7119H54.8344L55.8602 33.7994H58.8578V40.5797H56.6768Z" fill="black"/>
</mask>
<g mask="url(#mask0_1_2)">
<path d="M8.2665 35.5339V35.418H8.14933V35.5339H8.2665ZM8.2665 40.5797V40.6957H8.38366V40.5797H8.2665ZM6.06558 40.5797H5.94842V40.6957H6.06558V40.5797ZM6.06558 35.5339H6.18274V35.418H6.06558V35.5339ZM3.81487 35.5339H3.69771V35.6499H3.81487V35.5339ZM3.81487 33.7994V33.6835H3.69771V33.7994H3.81487ZM10.5072 33.7994H10.6244V33.6835H10.5072V33.7994ZM10.5072 35.5339V35.6499H10.6244V35.5339H10.5072ZM8.14933 35.5339V40.5797H8.38366V35.5339H8.14933ZM8.2665 40.4638H6.06558V40.6957H8.2665V40.4638ZM6.18274 40.5797V35.5339H5.94842V40.5797H6.18274ZM6.06558 35.418H3.81487V35.6499H6.06558V35.418ZM3.93203 35.5339V33.7994H3.69771V35.5339H3.93203ZM3.81487 33.9154H10.5072V33.6835H3.81487V33.9154ZM10.3901 33.7994V35.5339H10.6244V33.7994H10.3901ZM10.5072 35.418H8.2665V35.6499H10.5072V35.418ZM11.5099 33.7994V33.6835H11.3928V33.7994H11.5099ZM17.4355 33.7994H17.5526V33.6835H17.4355V33.7994ZM17.4355 35.4255V35.5414H17.5526V35.4255H17.4355ZM13.7108 35.4255V35.3096H13.5937V35.4255H13.7108ZM13.7108 36.3617H13.5937V36.4777H13.7108V36.3617ZM16.8977 36.3617H17.0149V36.2458H16.8977V36.3617ZM16.8977 37.9188V38.0348H17.0149V37.9188H16.8977ZM13.7108 37.9188V37.8029H13.5937V37.9188H13.7108ZM13.7108 38.9536H13.5937V39.0696H13.7108V38.9536ZM17.5052 38.9536H17.6223V38.8377H17.5052V38.9536ZM17.5052 40.5797V40.6957H17.6223V40.5797H17.5052ZM11.5099 40.5797H11.3928V40.6957H11.5099V40.5797ZM11.5099 33.9154H17.4355V33.6835H11.5099V33.9154ZM17.3183 33.7994V35.4255H17.5526V33.7994H17.3183ZM17.4355 35.3096H13.7108V35.5414H17.4355V35.3096ZM13.5937 35.4255V36.3617H13.828V35.4255H13.5937ZM13.7108 36.4777H16.8977V36.2458H13.7108V36.4777ZM16.7805 36.3617V37.9188H17.0149V36.3617H16.7805ZM16.8977 37.8029H13.7108V38.0348H16.8977V37.8029ZM13.5937 37.9188V38.9536H13.828V37.9188H13.5937ZM13.7108 39.0696H17.5052V38.8377H13.7108V39.0696ZM17.388 38.9536V40.5797H17.6223V38.9536H17.388ZM17.5052 40.4638H11.5099V40.6957H17.5052V40.4638ZM11.6271 40.5797V33.7994H11.3928V40.5797H11.6271ZM24.3736 34.44L24.297 34.5277L24.2975 34.5282L24.3736 34.44ZM25.2599 36.5884V36.7043H25.3771V36.5884H25.2599ZM23.1586 36.5884H23.0414V36.7043H23.1586V36.5884ZM22.8399 35.6522L22.7522 35.729L22.7528 35.7297L22.7535 35.7304L22.8399 35.6522ZM20.9677 35.7212L20.8744 35.6509L20.8739 35.6516L20.8734 35.6523L20.9677 35.7212ZM20.9677 38.658L20.8726 38.7258L20.8735 38.727L20.8744 38.7282L20.9677 38.658ZM23.2283 37.8301V37.7142H23.1112V37.8301H23.2283ZM25.2599 37.8301H25.3771V37.7142H25.2599V37.8301ZM24.3935 39.9588L24.317 39.871L24.3165 39.8715L24.3935 39.9588ZM19.3045 39.811L19.2217 39.893L19.2222 39.8934L19.3045 39.811ZM19.3045 34.5681L19.2222 34.4857L19.2217 34.4861L19.3045 34.5681ZM21.9635 33.7971C22.9598 33.7971 23.7331 34.0449 24.297 34.5277L24.4503 34.3523C23.8324 33.8233 22.9989 33.5652 21.9635 33.5652V33.7971ZM24.2975 34.5282C24.8568 35.0008 25.1428 35.6814 25.1428 36.5884H25.3771C25.3771 35.6294 25.0722 34.8779 24.4497 34.3518L24.2975 34.5282ZM25.2599 36.4725H23.1586V36.7043H25.2599V36.4725ZM23.2758 36.5884C23.2758 36.1732 23.1634 35.8305 22.9264 35.5739L22.7535 35.7304C22.9413 35.9337 23.0414 36.2152 23.0414 36.5884H23.2758ZM22.9276 35.5753C22.6944 35.3147 22.3635 35.1913 21.9536 35.1913V35.4232C22.3139 35.4232 22.5738 35.5297 22.7522 35.729L22.9276 35.5753ZM21.9536 35.1913C21.483 35.1913 21.1149 35.3386 20.8744 35.6509L21.0609 35.7914C21.2453 35.5518 21.5345 35.4232 21.9536 35.4232V35.1913ZM20.8734 35.6523C20.6474 35.9552 20.5418 36.3671 20.5418 36.8742H20.7761C20.7761 36.3958 20.8762 36.039 21.0619 35.79L20.8734 35.6523ZM20.5418 36.8742V37.5049H20.7761V36.8742H20.5418ZM20.5418 37.5049C20.5418 38.0061 20.6477 38.4171 20.8726 38.7258L21.0627 38.5901C20.876 38.3339 20.7761 37.9761 20.7761 37.5049H20.5418ZM20.8744 38.7282C21.1142 39.0397 21.475 39.1878 21.9337 39.1878V38.9559C21.5293 38.9559 21.246 38.8282 21.0609 38.5877L20.8744 38.7282ZM21.9337 39.1878C22.3778 39.1878 22.7343 39.0743 22.9825 38.8286L22.8168 38.6647C22.6269 38.8527 22.3393 38.9559 21.9337 38.9559V39.1878ZM22.9825 38.8286C23.2294 38.5843 23.3455 38.2459 23.3455 37.8301H23.1112C23.1112 38.2028 23.0082 38.4754 22.8168 38.6647L22.9825 38.8286ZM23.2283 37.9461H25.2599V37.7142H23.2283V37.9461ZM25.1428 37.8301C25.1428 38.7311 24.863 39.4052 24.317 39.871L24.47 40.0467C25.0792 39.527 25.3771 38.7819 25.3771 37.8301H25.1428ZM24.3165 39.8715C23.7738 40.3398 22.9951 40.582 21.9635 40.582V40.8139C23.03 40.8139 23.8713 40.5634 24.4705 40.0462L24.3165 39.8715ZM21.9635 40.582C20.8141 40.582 19.962 40.2914 19.3869 39.7286L19.2222 39.8934C19.8554 40.5132 20.776 40.8139 21.9635 40.8139V40.582ZM19.3874 39.729C18.8191 39.1667 18.5254 38.3271 18.5254 37.1896H18.2911C18.2911 38.3646 18.5949 39.2728 19.2217 39.893L19.3874 39.729ZM18.5254 37.1896C18.5254 36.052 18.8191 35.2124 19.3874 34.6501L19.2217 34.4861C18.5949 35.1064 18.2911 36.0145 18.2911 37.1896H18.5254ZM19.3869 34.6505C19.962 34.0877 20.8141 33.7971 21.9635 33.7971V33.5652C20.776 33.5652 19.8554 33.8659 19.2222 34.4857L19.3869 34.6505ZM31.0692 40.5797H30.952V40.6957H31.0692V40.5797ZM31.0692 38.0075H31.1864V37.8916H31.0692V38.0075ZM28.6492 38.0075V37.8916H28.532V38.0075H28.6492ZM28.6492 40.5797V40.6957H28.7663V40.5797H28.6492ZM26.4483 40.5797H26.3311V40.6957H26.4483V40.5797ZM26.4483 33.7994V33.6835H26.3311V33.7994H26.4483ZM28.6492 33.7994H28.7663V33.6835H28.6492V33.7994ZM28.6492 36.273H28.532V36.389H28.6492V36.273ZM31.0692 36.273V36.389H31.1864V36.273H31.0692ZM31.0692 33.7994V33.6835H30.952V33.7994H31.0692ZM33.2701 33.7994H33.3873V33.6835H33.2701V33.7994ZM33.2701 40.5797V40.6957H33.3873V40.5797H33.2701ZM31.1864 40.5797V38.0075H30.952V40.5797H31.1864ZM31.0692 37.8916H28.6492V38.1235H31.0692V37.8916ZM28.532 38.0075V40.5797H28.7663V38.0075H28.532ZM28.6492 40.4638H26.4483V40.6957H28.6492V40.4638ZM26.5654 40.5797V33.7994H26.3311V40.5797H26.5654ZM26.4483 33.9154H28.6492V33.6835H26.4483V33.9154ZM28.532 33.7994V36.273H28.7663V33.7994H28.532ZM28.6492 36.389H31.0692V36.1571H28.6492V36.389ZM31.1864 36.273V33.7994H30.952V36.273H31.1864ZM31.0692 33.9154H33.2701V33.6835H31.0692V33.9154ZM33.1529 33.7994V40.5797H33.3873V33.7994H33.1529ZM33.2701 40.4638H31.0692V40.6957H33.2701V40.4638ZM40.4206 34.44L40.344 34.5277L40.3446 34.5282L40.4206 34.44ZM41.307 36.5884V36.7043H41.4242V36.5884H41.307ZM39.2057 36.5884H39.0885V36.7043H39.2057V36.5884ZM38.887 35.6522L38.7993 35.729L38.7999 35.7297L38.8005 35.7304L38.887 35.6522ZM37.0147 35.7212L36.9215 35.6509L36.921 35.6516L36.9205 35.6523L37.0147 35.7212ZM37.0147 38.658L36.9197 38.7258L36.9206 38.727L36.9215 38.7282L37.0147 38.658ZM39.2754 37.8301V37.7142H39.1582V37.8301H39.2754ZM41.307 37.8301H41.4242V37.7142H41.307V37.8301ZM40.4406 39.9588L40.3641 39.871L40.3635 39.8715L40.4406 39.9588ZM35.3516 39.811L35.2687 39.893L35.2691 39.8934L35.3516 39.811ZM35.3516 34.5681L35.2691 34.4857L35.2687 34.4861L35.3516 34.5681ZM38.0106 33.7971C39.0068 33.7971 39.7801 34.0449 40.344 34.5277L40.4973 34.3523C39.8794 33.8233 39.0459 33.5652 38.0106 33.5652V33.7971ZM40.3446 34.5282C40.9038 35.0008 41.1898 35.6814 41.1898 36.5884H41.4242C41.4242 35.6294 41.1192 34.8779 40.4967 34.3518L40.3446 34.5282ZM41.307 36.4725H39.2057V36.7043H41.307V36.4725ZM39.3228 36.5884C39.3228 36.1732 39.2105 35.8305 38.9734 35.5739L38.8005 35.7304C38.9884 35.9337 39.0885 36.2152 39.0885 36.5884H39.3228ZM38.9747 35.5753C38.7415 35.3147 38.4105 35.1913 38.0006 35.1913V35.4232C38.3609 35.4232 38.6209 35.5297 38.7993 35.729L38.9747 35.5753ZM38.0006 35.1913C37.53 35.1913 37.1619 35.3386 36.9215 35.6509L37.1079 35.7914C37.2924 35.5518 37.5815 35.4232 38.0006 35.4232V35.1913ZM36.9205 35.6523C36.6945 35.9552 36.5888 36.3671 36.5888 36.8742H36.8231C36.8231 36.3958 36.9233 36.039 37.109 35.79L36.9205 35.6523ZM36.5888 36.8742V37.5049H36.8231V36.8742H36.5888ZM36.5888 37.5049C36.5888 38.0061 36.6948 38.4171 36.9197 38.7258L37.1097 38.5901C36.923 38.3339 36.8231 37.9761 36.8231 37.5049H36.5888ZM36.9215 38.7282C37.1613 39.0397 37.522 39.1878 37.9807 39.1878V38.9559C37.5763 38.9559 37.2931 38.8282 37.1079 38.5877L36.9215 38.7282ZM37.9807 39.1878C38.4249 39.1878 38.7814 39.0743 39.0296 38.8286L38.8639 38.6647C38.6739 38.8527 38.3863 38.9559 37.9807 38.9559V39.1878ZM39.0296 38.8286C39.2764 38.5843 39.3925 38.2459 39.3925 37.8301H39.1582C39.1582 38.2028 39.0552 38.4754 38.8639 38.6647L39.0296 38.8286ZM39.2754 37.9461H41.307V37.7142H39.2754V37.9461ZM41.1898 37.8301C41.1898 38.7311 40.9101 39.4052 40.3641 39.871L40.5171 40.0467C41.1263 39.527 41.4242 38.7819 41.4242 37.8301H41.1898ZM40.3635 39.8715C39.8209 40.3398 39.0422 40.582 38.0106 40.582V40.8139C39.077 40.8139 39.9183 40.5634 40.5175 40.0462L40.3635 39.8715ZM38.0106 40.582C36.8611 40.582 36.009 40.2914 35.4339 39.7286L35.2691 39.8934C35.9025 40.5132 36.823 40.8139 38.0106 40.8139V40.582ZM35.4344 39.729C34.8662 39.1667 34.5724 38.3271 34.5724 37.1896H34.3381C34.3381 38.3646 34.6419 39.2728 35.2687 39.893L35.4344 39.729ZM34.5724 37.1896C34.5724 36.052 34.8662 35.2124 35.4344 34.6501L35.2687 34.4861C34.6419 35.1064 34.3381 36.0145 34.3381 37.1896H34.5724ZM35.4339 34.6505C36.009 34.0877 36.8611 33.7971 38.0106 33.7971V33.5652C36.823 33.5652 35.9025 33.8659 35.2691 34.4857L35.4339 34.6505ZM43.1625 39.811L43.0819 39.8952L43.0824 39.8956L43.0828 39.896L43.1625 39.811ZM43.1625 34.578L43.2426 34.6625H43.2427L43.1625 34.578ZM46.9768 38.6481L46.889 38.5714L46.8885 38.5719L46.888 38.5725L46.9768 38.6481ZM46.9768 35.731L46.888 35.8066L46.8885 35.8072L46.889 35.8078L46.9768 35.731ZM45.9012 33.7971C47.0635 33.7971 47.9439 34.0908 48.5598 34.6625L48.7201 34.4934C48.0479 33.8693 47.1025 33.5652 45.9012 33.5652V33.7971ZM48.5598 34.6625C49.1735 35.2323 49.4887 36.0681 49.4887 37.1896H49.7231C49.7231 36.0247 49.3944 35.1194 48.7201 34.4934L48.5598 34.6625ZM49.4887 37.1896C49.4887 38.3111 49.1735 39.1468 48.5598 39.7166L48.7201 39.8857C49.3944 39.2597 49.7231 38.3544 49.7231 37.1896H49.4887ZM48.5598 39.7166C47.9439 40.2883 47.0635 40.582 45.9012 40.582V40.8139C47.1025 40.8139 48.0479 40.5098 48.7201 39.8857L48.5598 39.7166ZM45.9012 40.582C44.7386 40.582 43.858 40.2914 43.2422 39.726L43.0828 39.896C43.7551 40.5132 44.7003 40.8139 45.9012 40.8139V40.582ZM43.2431 39.7268C42.636 39.1573 42.3236 38.3183 42.3236 37.1896H42.0893C42.0893 38.3604 42.4144 39.269 43.0819 39.8952L43.2431 39.7268ZM42.3236 37.1896C42.3236 36.0608 42.636 35.2254 43.2426 34.6625L43.0824 34.4934C42.4144 35.1132 42.0893 36.0188 42.0893 37.1896H42.3236ZM43.2427 34.6625C43.8585 34.0908 44.7389 33.7971 45.9012 33.7971V33.5652C44.6999 33.5652 43.7546 33.8693 43.0824 34.4934L43.2427 34.6625ZM45.9012 35.1913C45.405 35.1913 45.0102 35.341 44.7368 35.6554L44.9145 35.8066C45.1324 35.5559 45.4547 35.4232 45.9012 35.4232V35.1913ZM44.7368 35.6554C44.4682 35.9644 44.34 36.375 44.34 36.8742H44.5743C44.5743 36.4142 44.6918 36.0627 44.9145 35.8066L44.7368 35.6554ZM44.34 36.8742V37.5049H44.5743V36.8742H44.34ZM44.34 37.5049C44.34 38.0042 44.4682 38.4147 44.7368 38.7237L44.9145 38.5725C44.6918 38.3165 44.5743 37.9649 44.5743 37.5049H44.34ZM44.7368 38.7237C45.0102 39.0381 45.405 39.1878 45.9012 39.1878V38.9559C45.4547 38.9559 45.1324 38.8232 44.9145 38.5725L44.7368 38.7237ZM45.9012 39.1878C46.3974 39.1878 46.7923 39.0381 47.0656 38.7237L46.888 38.5725C46.67 38.8232 46.3478 38.9559 45.9012 38.9559V39.1878ZM47.0646 38.7249C47.3405 38.4159 47.4724 38.0049 47.4724 37.5049H47.238C47.238 37.9642 47.1176 38.3153 46.889 38.5714L47.0646 38.7249ZM47.4724 37.5049V36.8742H47.238V37.5049H47.4724ZM47.4724 36.8742C47.4724 36.3743 47.3405 35.9632 47.0646 35.6543L46.889 35.8078C47.1176 36.0638 47.238 36.415 47.238 36.8742H47.4724ZM47.0656 35.6554C46.7923 35.341 46.3974 35.1913 45.9012 35.1913V35.4232C46.3478 35.4232 46.67 35.5559 46.888 35.8066L47.0656 35.6554ZM56.6768 40.5797H56.5597V40.6957H56.6768V40.5797ZM56.7067 37.2093L56.5899 37.1998L56.5898 37.2009L56.5898 37.202L56.7067 37.2093ZM56.8362 35.9872L56.9526 36.0001L56.9671 35.8713H56.8362V35.9872ZM56.7963 35.9872V35.8713H56.7068L56.6833 35.9568L56.7963 35.9872ZM55.5316 40.5797V40.6957H55.6211L55.6446 40.6102L55.5316 40.5797ZM53.8087 40.5797L53.6957 40.6105L53.7194 40.6957H53.8087V40.5797ZM52.5339 35.9971L52.6469 35.9663L52.6232 35.8812H52.5339V35.9971ZM52.4941 35.9971V35.8812H52.3632L52.3776 36.0099L52.4941 35.9971ZM52.5439 36.411L52.4276 36.425L52.4278 36.427L52.4281 36.4289L52.5439 36.411ZM52.6335 37.2093L52.5167 37.2187L52.5168 37.2189L52.6335 37.2093ZM52.6734 40.5797V40.6957H52.7905V40.5797H52.6734ZM50.6517 40.5797H50.5345V40.6957H50.6517V40.5797ZM50.6517 33.7994V33.6835H50.5345V33.7994H50.6517ZM53.7589 33.7994L53.8722 33.77L53.8493 33.6835H53.7589V33.7994ZM54.7946 37.7119L54.6813 37.7413L54.7042 37.8278H54.7946V37.7119ZM54.8344 37.7119V37.8278H54.9251L54.9479 37.741L54.8344 37.7119ZM55.8602 33.7994V33.6835H55.7695L55.7468 33.7703L55.8602 33.7994ZM58.8578 33.7994H58.975V33.6835H58.8578V33.7994ZM58.8578 40.5797V40.6957H58.975V40.5797H58.8578ZM56.794 40.5797V38.1357H56.5597V40.5797H56.794ZM56.794 38.1357C56.794 37.8359 56.8038 37.5296 56.8236 37.2165L56.5898 37.202C56.5697 37.5197 56.5597 37.8309 56.5597 38.1357H56.794ZM56.8235 37.2187C56.8499 36.8976 56.8764 36.6299 56.9027 36.4151L56.67 36.3872C56.6433 36.606 56.6166 36.877 56.5899 37.1998L56.8235 37.2187ZM56.9027 36.4151C56.9292 36.1985 56.9459 36.0599 56.9526 36.0001L56.7197 35.9744C56.7132 36.0329 56.6966 36.1702 56.67 36.3872L56.9027 36.4151ZM56.8362 35.8713H56.7963V36.1032H56.8362V35.8713ZM56.6833 35.9568L55.4185 40.5492L55.6446 40.6102L56.9093 36.0177L56.6833 35.9568ZM55.5316 40.4638H53.8087V40.6957H55.5316V40.4638ZM53.9216 40.5489L52.6469 35.9663L52.4209 36.0279L53.6957 40.6105L53.9216 40.5489ZM52.5339 35.8812H52.4941V36.113H52.5339V35.8812ZM52.3776 36.0099C52.3844 36.0697 52.401 36.2083 52.4276 36.425L52.6602 36.397C52.6336 36.1801 52.6171 36.0427 52.6105 35.9843L52.3776 36.0099ZM52.4281 36.4289C52.4607 36.6353 52.4903 36.8983 52.5167 37.2187L52.7503 37.1998C52.7236 36.8763 52.6935 36.6072 52.6597 36.3931L52.4281 36.4289ZM52.5168 37.2189C52.5431 37.5312 52.5562 37.8368 52.5562 38.1357H52.7905C52.7905 37.8301 52.7771 37.5181 52.7503 37.1997L52.5168 37.2189ZM52.5562 38.1357V40.5797H52.7905V38.1357H52.5562ZM52.6734 40.4638H50.6517V40.6957H52.6734V40.4638ZM50.7689 40.5797V33.7994H50.5345V40.5797H50.7689ZM50.6517 33.9154H53.7589V33.6835H50.6517V33.9154ZM53.6455 33.8288L54.6813 37.7413L54.9079 37.6825L53.8722 33.77L53.6455 33.8288ZM54.7946 37.8278H54.8344V37.5959H54.7946V37.8278ZM54.9479 37.741L55.9736 33.8285L55.7468 33.7703L54.721 37.6828L54.9479 37.741ZM55.8602 33.9154H58.8578V33.6835H55.8602V33.9154ZM58.7407 33.7994V40.5797H58.975V33.7994H58.7407ZM58.8578 40.4638H56.6768V40.6957H58.8578V40.4638Z" fill="white"/>
</g>
<path d="M4.31809 32.8406L26.7842 16.058L34.6341 22.8696L37.8561 19.913L48.9574 28.2319L51.1249 26.4348L58.5648 32.8406H30.5334L37.8561 29.1304L34.6341 27.6232L35.8936 24.6087L23.5036 32.8406H18.2898L24.5581 27.971L20.9846 28.2319L26.7842 25.6812L26.4913 24.6087L24.5581 24.2609L26.4913 22.8696L26.7842 19.913L8.97533 31.4203L11.4651 32.8406H4.31809Z" fill="white" stroke="white"/>
</g>
</g>
<defs>
<clipPath id="clip0_1_2">
<rect width="64" height="64" fill="white"/>
</clipPath>
<clipPath id="clip1_1_2">
<rect width="57" height="32" fill="white" transform="translate(3 16)"/>
</clipPath>
</defs>
</svg>
